<?xml version="1.0" encoding="UTF-8"?>
<svg version="1.1" xmlns="http://www.w3.org/2000/svg" width="300" height="283">
<path d="M0 0 C2.45865994 1.91107421 4.06059591 3.73662121 5.75390625 6.36328125 C6.26984856 10.76426916 5.93368533 14.91374891 5.75390625 19.36328125 C-0.84609375 19.36328125 -7.44609375 19.36328125 -14.24609375 19.36328125 C-14.24609375 22.00328125 -14.24609375 24.64328125 -14.24609375 27.36328125 C-7.64609375 27.36328125 -1.04609375 27.36328125 5.75390625 27.36328125 C5.75390625 37.92328125 5.75390625 48.48328125 5.75390625 59.36328125 C2.67968584 57.82617104 0.16186423 56.31623422 -2.62109375 54.36328125 C-15.5029187 45.78235734 -29.62996976 48.65196427 -43.99609375 51.11328125 C-45.8672478 51.42242017 -47.73859227 51.7304083 -49.61010742 52.03735352 C-61.0622668 53.92904667 -72.49748597 55.92154119 -83.93455124 57.90205765 C-86.1205005 58.28047108 -88.3065336 58.65839699 -90.49258423 59.03622437 C-91.94916512 59.28810416 -93.40573861 59.54002675 -94.86230469 59.79199219 C-95.94250287 59.97884929 -95.94250287 59.97884929 -97.04452324 60.16948128 C-101.3650035 60.91786812 -105.68408012 61.67382671 -110.00219059 62.43576336 C-112.06515136 62.79907957 -114.12854156 63.15983718 -116.19212341 63.51960754 C-118.73531944 63.96336737 -121.27774317 64.41158488 -123.81922913 64.86503601 C-129.36795212 65.82781437 -134.61153793 66.64724273 -140.24609375 66.36328125 C-138.91838451 63.58449838 -137.44250034 61.05682016 -135.69921875 58.51953125 C-135.19076416 57.77743408 -134.68230957 57.03533691 -134.15844727 56.27075195 C-133.60987061 55.47628662 -133.06129395 54.68182129 -132.49609375 53.86328125 C-131.92624756 53.03465576 -131.35640137 52.20603027 -130.76928711 51.35229492 C-126.47035444 45.1120221 -122.14628308 38.88916499 -117.80859375 32.67578125 C-117.24237305 31.86367187 -116.67615234 31.0515625 -116.09277344 30.21484375 C-115.5465332 29.43496094 -115.00029297 28.65507812 -114.4375 27.8515625 C-113.96513916 27.17649658 -113.49277832 26.50143066 -113.00610352 25.8059082 C-112.42530029 24.99984131 -111.84449707 24.19377441 -111.24609375 23.36328125 C-110.66072185 22.42351456 -110.66072185 22.42351456 -110.06352425 21.46476269 C-106.93387432 16.75277746 -104.59447909 14.45760384 -99.03717041 13.22561646 C-97.86115265 13.01628983 -97.86115265 13.01628983 -96.66137695 12.80273438 C-95.8198558 12.62600189 -94.97833466 12.44926941 -94.11131287 12.2671814 C-91.3451993 11.69466805 -88.57244039 11.16912467 -85.796875 10.64453125 C-83.85830894 10.25493808 -81.92025971 9.86276515 -79.98271179 9.46813965 C-75.92546977 8.64865477 -71.86482615 7.85057317 -67.80004883 7.06933594 C-62.61384415 6.0722739 -57.43600747 5.03805177 -52.25999165 3.98950958 C-47.29581222 2.98587832 -42.32768397 2.00247332 -37.359375 1.01953125 C-35.95535651 0.73874474 -35.95535651 0.73874474 -34.52297401 0.45228577 C-8.85456829 -4.64721403 -8.85456829 -4.64721403 0 0 Z " fill="#005C56" transform="translate(140.24609375,216.63671875)"/>
<path d="M0 0 C0.89008759 0.10904663 1.78017517 0.21809326 2.69723511 0.33044434 C4.13052658 0.53039001 4.13052658 0.53039001 5.59277344 0.734375 C6.56111115 0.86863892 7.52944885 1.00290283 8.52713013 1.14123535 C15.43754584 2.15015177 22.31317027 3.34152291 29.18652344 4.57568359 C31.69918557 5.01338778 34.21670653 5.4240925 36.73828125 5.80712891 C59.97924762 9.3628085 59.97924762 9.3628085 66.46061707 17.82911682 C68.35274534 20.73972171 70.03953642 23.70132768 71.59912109 26.80218506 C72.8473725 29.22945133 74.36543253 31.37133124 76.00292969 33.55078125 C80.98668824 40.58625295 85.94127281 47.6412958 90.84277344 54.734375 C91.32109619 55.42345947 91.79941895 56.11254395 92.29223633 56.82250977 C95.59277344 61.61689042 95.59277344 61.61689042 95.59277344 62.734375 C84.97118336 62.25968784 74.66228011 60.52996522 64.20721436 58.69607544 C61.15392506 58.16067914 58.09938346 57.63301112 55.04443359 57.10717773 C47.4623085 55.80051585 39.88244295 54.48093728 32.30249023 53.16174316 C25.87762407 52.04409461 19.45192939 50.93144664 13.02508545 49.82522583 C10.03717024 49.30886784 7.05057045 48.78534559 4.06396484 48.26147461 C-20.91268753 43.68092126 -20.91268753 43.68092126 -44.40722656 51.734375 C-46.93615212 53.83468835 -46.93615212 53.83468835 -48.40722656 55.734375 C-49.39722656 55.404375 -50.38722656 55.074375 -51.40722656 54.734375 C-51.52588853 46.309375 -51.52588853 46.309375 -49.02832031 42.79296875 C-47.20842093 41.03821118 -45.31336202 39.3945575 -43.40722656 37.734375 C-42.34469888 36.54434399 -41.3035442 35.33495616 -40.28222656 34.109375 C-33.3171228 26.04369051 -25.62599171 18.31113389 -17.42285156 11.50390625 C-15.25200432 9.64772223 -15.25200432 9.64772223 -12.82910156 7.05859375 C-11.90613281 6.12660156 -10.98316406 5.19460937 -10.03222656 4.234375 C-8.783125 2.91953125 -8.783125 2.91953125 -7.50878906 1.578125 C-4.16987147 -0.40672274 -3.63402052 -0.45276013 0 0 Z " fill="#005C56" transform="translate(204.4072265625,220.265625)"/>
<path d="M0 0 C0.66 0 1.32 0 2 0 C2.61658389 16.30521842 0.83225374 30.99413163 -10.328125 43.56640625 C-11.1049765 44.45616905 -11.1049765 44.45616905 -11.89752197 45.36390686 C-17.62813953 51.84500793 -23.70995766 57.97711666 -29.85595703 64.06176758 C-31.76794262 65.95526917 -33.67157649 67.85688 -35.57421875 69.75976562 C-41.04723499 75.21651746 -46.51843919 80.61090486 -52.40722656 85.62329102 C-54.72849538 87.62967282 -56.86056932 89.80274687 -59 92 C-61.84815271 94.88705009 -64.69825997 97.65370726 -67.8125 100.25 C-77.70570805 108.80792844 -88.23284427 118.03748451 -89.28515625 131.703125 C-89.43312053 138.26501924 -88.99576174 143.78120642 -87 150 C-92.82886408 147.46348332 -97.26316629 142.2307151 -99.9375 136.5 C-102.56683369 128.18473221 -102.48647646 116.41107597 -98.6484375 108.5546875 C-90.98940989 96.68500964 -80.11404416 86.94754919 -70.1875 77 C-69.5985495 76.40978058 -69.009599 75.81956116 -68.40280151 75.2114563 C-62.6045412 69.41460629 -56.80767481 63.67745277 -50.56762695 58.3515625 C-48.60873393 56.66266174 -46.7959586 54.86009998 -45 53 C-42.54087905 50.50290035 -40.04906214 48.13941858 -37.375 45.875 C-22.04312719 32.59139311 -9.50886212 17.92788331 0 0 Z " fill="#CA9B2C" transform="translate(176,32)"/>
<path d="M0 0 C0.66 0 1.32 0 2 0 C2.47747022 15.91567386 2.23914297 28.18210475 -9.15917969 40.29443359 C-11.51976929 42.6802622 -13.90766339 45.03380381 -16.3125 47.375 C-17.93575844 48.96393739 -19.5569634 50.55497624 -21.17578125 52.1484375 C-21.88645752 52.84114746 -22.59713379 53.53385742 -23.3293457 54.24755859 C-25.07668899 55.9088135 -25.07668899 55.9088135 -26 58 C-26.66 58 -27.32 58 -28 58 C-28 58.66 -28 59.32 -28 60 C-29.29296875 61.26953125 -29.29296875 61.26953125 -31.1875 62.8125 C-35.74310488 66.67222208 -39.91054197 70.84887867 -44.07885742 75.11645508 C-46.8247599 77.9057072 -49.61670723 80.5633582 -52.59375 83.10546875 C-58.06955066 87.84111932 -63.156285 92.97025512 -68.27246094 98.0871582 C-69.99134991 99.80386091 -71.7180938 101.51238662 -73.4453125 103.22070312 C-85.88664161 115.59613998 -95.61734812 127.62316972 -100 145 C-100.66 145 -101.32 145 -102 145 C-106.12524173 134.34312554 -106.79428458 123.17151888 -102.3125 112.51171875 C-98.50578031 105.22683553 -92.80775996 99.64977529 -86.98486328 93.95410156 C-84.45655063 91.4807712 -82.05608758 88.98398924 -79.8125 86.25 C-77.82120468 83.83740267 -75.71089572 81.81718273 -73.32421875 79.796875 C-69.00497868 76.0610499 -64.99703223 72.07509927 -61 68 C-57.22508524 64.15135643 -53.46669613 60.34815591 -49.36328125 56.84765625 C-43.66193381 51.93078306 -38.36723076 46.59052178 -33.0378418 41.27807617 C-31.20875939 39.45864719 -29.36924811 37.65022439 -27.52929688 35.84179688 C-16.65271304 25.06357783 -6.72310329 13.90008698 0 0 Z " fill="#CA9B2C" transform="translate(175,0)"/>
<path d="M0 0 C0.66 0 1.32 0 2 0 C4.49040402 28.10118044 4.49040402 28.10118044 -3.49072266 37.81420898 C-5.27058341 39.78838758 -7.09162859 41.71245624 -8.9375 43.625 C-9.55818359 44.27984375 -10.17886719 44.9346875 -10.81835938 45.609375 C-12.53556585 47.41619076 -14.26674907 49.2086006 -16 51 C-16.76441406 51.81210938 -17.52882813 52.62421875 -18.31640625 53.4609375 C-20 55 -20 55 -22 55 C-22 55.66 -22 56.32 -22 57 C-23.29296875 58.3046875 -23.29296875 58.3046875 -25.1875 59.875 C-29.00620415 63.11920884 -32.70534067 66.46493072 -36.375 69.875 C-40.23559534 73.45865163 -44.11893795 77.0073122 -48.0625 80.5 C-64.31842311 94.25760942 -64.31842311 94.25760942 -72.23828125 113.2265625 C-72.42195892 119.16225126 -71.36590391 123.48278424 -68.875 128.87109375 C-68 131 -68 131 -68 134 C-76.42400481 129.95647769 -80.88106883 123.70017642 -84 115 C-86.20514317 107.38223268 -85.68740044 99.0373917 -82 92 C-79.33721637 88.34364038 -76.1849297 85.19622378 -73 82 C-71.56248512 80.53647295 -70.12498651 79.07292992 -68.6875 77.609375 C-62.24436954 71.09029408 -55.82913054 64.61608204 -48.88305664 58.62915039 C-39.3902623 50.41633869 -30.43096456 41.56172055 -21.5 32.75 C-20.6637207 31.9350708 -19.82744141 31.1201416 -18.96582031 30.28051758 C-10.31474674 21.67715851 -2.77013064 12.11253201 0 0 Z " fill="#CA9B2B" transform="translate(174,68)"/>
<path d="M0 0 C6.40047953 2.82374097 9.61590406 8.91724086 12.375 15.0625 C14.05052234 22.937455 12.98407769 29.99608741 8.8515625 36.92578125 C7.33008631 39.04969166 5.70581798 41.02040876 4 43 C3.24976563 43.87140625 2.49953125 44.7428125 1.7265625 45.640625 C-8.34009115 56.94671649 -19.57833811 67.08771268 -31 77 C-37.24352083 82.43436053 -43.19915757 88.09708025 -49.0625 93.9375 C-49.73031494 94.60072266 -50.39812988 95.26394531 -51.08618164 95.94726562 C-51.70871826 96.57181641 -52.33125488 97.19636719 -52.97265625 97.83984375 C-53.53218994 98.40050537 -54.09172363 98.96116699 -54.66821289 99.53881836 C-56.10368492 100.98071585 -56.10368492 100.98071585 -57 103 C-57.99 102.67 -58.98 102.34 -60 102 C-60.03568629 98.49822606 -59.99318414 95.001419 -59.9375 91.5 C-59.94845703 90.51773438 -59.95941406 89.53546875 -59.97070312 88.5234375 C-59.81446655 81.82758442 -58.52916992 78.36147977 -53.75805664 73.62255859 C-53.17789795 73.08711426 -52.59773926 72.55166992 -52 72 C-51.32453125 71.26910156 -50.6490625 70.53820312 -49.953125 69.78515625 C-45.53399431 65.31534746 -40.83219306 61.35960788 -35.93359375 57.42578125 C-32.26158846 54.38940936 -28.76652246 51.19075883 -25.27709961 47.94824219 C-22.50799502 45.37573634 -19.70169693 42.87382677 -16.8125 40.4375 C-8.81583493 33.45919938 -1.20664668 25.72097206 1 15 C1.16916962 9.84032673 0.84763677 5.08582062 0 0 Z " fill="#CA9B2C" transform="translate(213,116)"/>
<path d="M0 0 C3.7037688 2.4691792 3.9222505 3.75885613 5 8 C6.38182953 19.71897734 4.27020855 28.20587572 -2.9453125 37.5078125 C-5.20944433 40.10613353 -7.57019878 42.55573568 -10 45 C-11.06277616 46.08827205 -12.12526031 47.17682931 -13.1875 48.265625 C-18.92020111 54.10102378 -24.77178246 59.69355865 -31 65 C-32.65155164 66.45185422 -34.29702106 67.9106461 -35.9375 69.375 C-36.79472656 70.12394531 -37.65195313 70.87289062 -38.53515625 71.64453125 C-41.04666884 73.91638866 -41.04666884 73.91638866 -42.93359375 76.57421875 C-45.65938232 80.06783509 -47.79240578 82.63597447 -52.34521484 83.38671875 C-58.24486403 83.77563538 -64.1144247 83.49647607 -70 83 C-69.48794502 79.06526171 -68.66263373 77.18468848 -65.75 74.5 C-65.16734375 73.9534375 -64.5846875 73.406875 -63.984375 72.84375 C-63.32953125 72.2353125 -62.6746875 71.626875 -62 71 C-59.3991715 68.42475342 -56.82836799 65.82394195 -54.2734375 63.203125 C-48.64551227 57.45140283 -42.90444083 52.1664415 -36.59375 47.15234375 C-33.20907698 44.34367683 -30.17680455 41.26386738 -27.11328125 38.11328125 C-25.14860115 36.14860115 -23.12402269 34.35137118 -21 32.5625 C-10.69005918 23.64912487 -2.21128418 13.70996189 0 0 Z " fill="#CA9B2C" transform="translate(224,151)"/>
<path d="M0 0 C5.73224179 1.91074726 8.67486211 8.43061927 11.34375 13.60546875 C14.43682259 20.73058238 15.09582173 26.25507504 12.75 33.6875 C6.62949061 47.79505711 -8.78658316 58.58284596 -20.59692383 67.68823242 C-25.52166026 71.52573291 -30.11816474 75.64896405 -34.6496582 79.94067383 C-37.65668705 82.78828689 -40.7280828 85.46051197 -44 88 C-44.14592789 84.29208456 -44.23427895 80.58491274 -44.3125 76.875 C-44.35439453 75.82828125 -44.39628906 74.7815625 -44.43945312 73.703125 C-44.57762662 64.9705599 -44.57762662 64.9705599 -41.8828125 61.58203125 C-38.84971024 58.86539088 -35.81035395 56.26637301 -32.5625 53.8125 C-31.32290667 52.8554817 -30.08332364 51.89845005 -28.84375 50.94140625 C-27.56267662 49.96070674 -26.28142591 48.98023884 -25 48 C-8.24256069 36.35335852 -8.24256069 36.35335852 1 19 C1.30716282 12.59475183 1.1474514 6.31098272 0 0 Z " fill="#CA9B2C" transform="translate(198,95)"/>
<path d="M0 0 C3.3 0 6.6 0 10 0 C3.97321429 8.16964286 3.97321429 8.16964286 1 11 C0.34 10.67 -0.32 10.34 -1 10 C-0.67 6.7 -0.34 3.4 0 0 Z " fill="#CB9D2C" transform="translate(154,243)"/>
</svg>
